0
SECTION
2
HEADER
9
$INSUNITS
70
4
9
$ACADVER
1
AC1014
9
$HANDSEED
5
FFFF
0
ENDSEC
0
SECTION
2
TABLES
0
TABLE
2
VPORT
5
8
100
AcDbSymbolTable
0
ENDTAB
0
TABLE
2
LTYPE
5
5
100
AcDbSymbolTable
0
LTYPE
5
14
100
AcDbSymbolTableRecord
100
AcDbLinetypeTableRecord
2
BYBLOCK
70
0
0
LTYPE
5
15
100
AcDbSymbolTableRecord
100
AcDbLinetypeTableRecord
2
BYLAYER
70
0
0
ENDTAB
0
TABLE
2
LAYER
5
2
100
AcDbSymbolTable
70
2
0
LAYER
5
50
100
AcDbSymbolTableRecord
100
AcDbLayerTableRecord
2
0
70
0
6
CONTINUOUS
0
ENDTAB
0
TABLE
2
STYLE
5
3
100
AcDbSymbolTable
70
1
0
STYLE
5
11
100
AcDbSymbolTableRecord
100
AcDbTextStyleTableRecord
2
STANDARD
70
0
0
ENDTAB
0
TABLE
2
VIEW
5
6
100
AcDbSymbolTable
70
0
0
ENDTAB
0
TABLE
2
UCS
5
7
100
AcDbSymbolTable
70
0
0
ENDTAB
0
TABLE
2
APPID
5
9
100
AcDbSymbolTable
70
2
0
APPID
5
12
100
AcDbSymbolTableRecord
100
AcDbRegAppTableRecord
2
ACAD
70
0
0
ENDTAB
0
TABLE
2
DIMSTYLE
5
A
100
AcDbSymbolTable
70
1
0
ENDTAB
0
TABLE
2
BLOCK_RECORD
5
1
100
AcDbSymbolTable
70
1
0
BLOCK_RECORD
5
1F
100
AcDbSymbolTableRecord
100
AcDbBlockTableRecord
2
*MODEL_SPACE
0
BLOCK_RECORD
5
1B
100
AcDbSymbolTableRecord
100
AcDbBlockTableRecord
2
*PAPER_SPACE
0
ENDTAB
0
ENDSEC
0
SECTION
2
BLOCKS
0
BLOCK
5
20
100
AcDbEntity
100
AcDbBlockBegin
2
*MODEL_SPACE
0
ENDBLK
5
21
100
AcDbEntity
100
AcDbBlockEnd
0
BLOCK
5
1C
100
AcDbEntity
100
AcDbBlockBegin
2
*PAPER_SPACE
0
ENDBLK
5
1D
100
AcDbEntity
100
AcDbBlockEnd
0
ENDSEC
0
SECTION
2
ENTITIES
0
CIRCLE
5
100
100
AcDbEntity
8
0
100
AcDbCircle
10
27.046834380385455
20
-27.046834380385476
30
0
40
1.6999999999999993
210
0
220
-0
230
1
0
CIRCLE
5
101
100
AcDbEntity
8
0
100
AcDbCircle
10
27.046834380385448
20
27.046834380385476
30
0
40
1.6999999999999993
210
0
220
-0
230
1
0
CIRCLE
5
102
100
AcDbEntity
8
0
100
AcDbCircle
10
-27.04683438038543
20
27.046834380385476
30
0
40
1.6999999999999993
210
0
220
-0
230
1
0
CIRCLE
5
103
100
AcDbEntity
8
0
100
AcDbCircle
10
-27.046834380385452
20
-27.046834380385476
30
0
40
1.6999999999999993
210
0
220
-0
230
1
0
LWPOLYLINE
5
104
100
AcDbEntity
8
0
100
AcDbPolyline
90
8
70
1
43
0.0
10
-33.149999999999999
20
-28.150000000000034
10
-33.149999999999999
20
28.149999999999974
42
-0.41421356237309426
10
-28.150000000000006
20
33.14999999999997
10
28.149999999999913
20
33.149999999999977
42
-0.41421356237309553
10
33.14999999999992
20
28.149999999999974
10
33.149999999999928
20
-28.150000000000034
42
-0.41421356237309476
10
28.14999999999992
20
-33.150000000000041
10
-28.149999999999999
20
-33.150000000000034
42
-0.41421356237309476
0
LINE
5
105
100
AcDbEntity
8
0
100
AcDbLine
10
0
20
0
30
0
11
-8.8592777441812849e-32
21
-59.999999999999993
31
0
0
LINE
5
106
100
AcDbEntity
8
0
100
AcDbLine
10
59.999999999999993
20
1.0408592530159942e-14
30
0
11
0
21
0
31
0
0
LINE
5
107
100
AcDbEntity
8
0
100
AcDbLine
10
0
20
0
30
0
11
42.426406871184795
21
-42.426406871116804
31
0
0
ARC
5
108
100
AcDbEntity
8
0
100
AcDbCircle
10
0
20
0
30
0
40
59.999999999940528
210
0
220
0
230
1
100
AcDbArc
50
276.75000000009186
51
353.25
0
LINE
5
109
100
AcDbEntity
8
0
100
AcDbLine
10
40.373114976269704
20
-31.392858855180542
30
0
11
27.520693935512703
21
-18.540437814423548
31
0
0
LINE
5
110
100
AcDbEntity
8
0
100
AcDbLine
10
24.126385362380141
20
-18.540437814423552
30
0
11
18.540437814451948
21
-24.126385362340162
31
0
0
LINE
5
111
100
AcDbEntity
8
0
100
AcDbLine
10
18.540437814451941
20
-27.520693935472707
30
0
11
31.392858855242697
21
-40.373114976263452
31
0
0
ARC
5
112
100
AcDbEntity
8
0
100
AcDbCircle
10
0
20
0
30
0
40
56.999999999940542
210
-0
220
0
230
1
100
AcDbArc
50
276.75
51
302.39260309508035
0
ARC
5
113
100
AcDbEntity
8
0
100
AcDbCircle
10
0
20
0
30
0
40
56.999999999940499
210
0
220
0
230
1
100
AcDbArc
50
327.60739690500588
51
353.25000000000011
0
ARC
5
114
100
AcDbEntity
8
0
100
AcDbCircle
10
0
20
0
30
0
40
62.999999999940471
210
-0
220
0
230
1
100
AcDbArc
50
276.75
51
353.25
0
CIRCLE
5
115
100
AcDbEntity
8
0
100
AcDbCircle
10
42.426406871184795
20
-42.426406871116804
30
0
40
2.2400000000000002
210
0
220
0
230
1
0
ARC
5
116
100
AcDbEntity
8
0
100
AcDbCircle
10
27.857324949296675
20
-43.908648882209476
30
0
40
5.0000000000187832
210
-0
220
0
230
1
100
AcDbArc
50
-57.607396904919121
51
45.000000000000028
0
ARC
5
117
100
AcDbEntity
8
0
100
AcDbCircle
10
43.908648882231972
20
-27.857324949218281
30
0
40
5.0000000000417515
210
0
220
0
230
1
100
AcDbArc
50
224.99999999999991
51
327.60739690500554
0
LINE
5
118
100
AcDbEntity
8
0
100
AcDbLine
10
0
20
0
30
0
11
6.6989656285975583
21
-56.604980871828673
31
0
0
ARC
5
119
100
AcDbEntity
8
0
100
AcDbCircle
10
25.823539648946422
20
-20.237592100989829
30
0
40
2.4001386095016679
210
0
220
-0
230
1
100
AcDbArc
50
45
51
135.00000000000009
0
ARC
5
120
100
AcDbEntity
8
0
100
AcDbCircle
10
20.237592101018219
20
-25.823539648906436
30
0
40
2.4001386095016586
210
0
220
0
230
1
100
AcDbArc
50
134.99999999999994
51
224.99999999999989
0
LINE
5
121
100
AcDbEntity
8
0
100
AcDbLine
10
6.6989656285975583
20
-56.604980871828673
30
0
11
7.0522438475587563
21
-59.584107417225212
31
0
0
CIRCLE
5
122
100
AcDbEntity
8
0
100
AcDbCircle
10
27.23942998434941
20
-53.460391451247247
30
0
40
2.2400000000000002
210
0
220
0
230
1
0
CIRCLE
5
123
100
AcDbEntity
8
0
100
AcDbCircle
10
9.3860679024047826
20
-59.261300435650803
30
0
40
2.2400000000000002
210
0
220
0
230
1
0
CIRCLE
5
124
100
AcDbEntity
8
0
100
AcDbCircle
10
53.46039145124908
20
-27.239429984345804
30
0
40
2.2400000000000002
210
0
220
0
230
1
0
CIRCLE
5
125
100
AcDbEntity
8
0
100
AcDbCircle
10
59.261300435649567
20
-9.3860679024043279
30
0
40
2.2400000000000002
210
0
220
0
230
1
0
LINE
5
126
100
AcDbEntity
8
0
100
AcDbLine
10
0
20
0
30
0
11
9.3860679024047826
21
-59.261300435651023
31
0
0
LINE
5
127
100
AcDbEntity
8
0
100
AcDbLine
10
0
20
0
30
0
11
27.23942998434941
21
-53.46039145124724
31
0
0
LINE
5
128
100
AcDbEntity
8
0
100
AcDbLine
10
53.46039145124908
20
-27.239429984345804
30
0
11
0
21
0
31
0
0
LINE
5
129
100
AcDbEntity
8
0
100
AcDbLine
10
59.261300435649545
20
-9.3860679024043279
30
0
11
0
21
0
31
0
0
LINE
5
130
100
AcDbEntity
8
0
100
AcDbLine
10
9.3860679024047826
20
-59.261300435650803
30
0
11
7.0522438475587563
21
-59.584107417225212
31
0
0
LINE
5
131
100
AcDbEntity
8
0
100
AcDbLine
10
59.261300435649559
20
-9.3860679024043243
30
0
11
59.611714967321454
21
-7.1736462301203385
31
0
0
LINE
5
132
100
AcDbEntity
8
0
100
AcDbLine
10
9.3860679024047826
20
-59.261300435651023
30
0
11
7.1736462953654279
21
-59.611715379283524
31
0
0
ARC
5
133
100
AcDbEntity
8
0
100
AcDbCircle
10
0
20
0
30
0
40
59.99999999994052
210
-0
220
0
230
1
100
AcDbArc
50
276.75000000000006
51
279
0
LINE
5
134
100
AcDbEntity
8
0
100
AcDbLine
10
7.0522438474632736
20
-59.58410741723651
30
0
11
7.4048560398367647
21
-62.563312788101243
31
0
0
LINE
5
135
100
AcDbEntity
8
0
100
AcDbLine
10
7.0522438474632736
20
-59.58410741723651
30
0
11
6.6996316550897603
21
-56.604902046371748
31
0
0
LINE
5
136
100
AcDbEntity
8
0
100
AcDbLine
10
0
20
0
30
0
11
7.0522438474632736
21
-59.58410741723651
31
0
0
ARC
5
137
100
AcDbEntity
8
0
100
AcDbCircle
10
7.0522438474632718
20
-59.58410741723651
30
0
40
2.9999999999999827
210
0
220
0
230
1
100
AcDbArc
50
96.75
51
276.74999999999972
0
LINE
5
138
100
AcDbEntity
8
0
100
AcDbLine
10
59.584107417236524
20
-7.052243847463262
30
0
11
0
21
0
31
0
0
LINE
5
139
100
AcDbEntity
8
0
100
AcDbLine
10
62.563312788101243
20
-7.4048560398367993
30
0
11
59.584107417236524
21
-7.052243847463262
31
0
0
ARC
5
140
100
AcDbEntity
8
0
100
AcDbCircle
10
59.584107417236524
20
-7.052243847463262
30
0
40
2.9999999999999503
210
-0
220
0
230
1
100
AcDbArc
50
-6.7500000000005977
51
173.25000000000003
0
LINE
5
141
100
AcDbEntity
8
0
100
AcDbLine
10
23.129462812630528
20
-23.129462812593459
30
0
11
21.333411588416705
21
-24.925514036807289
31
0
0
LINE
5
142
100
AcDbEntity
8
0
100
AcDbLine
10
23.129462812630528
20
-23.129462812593459
30
0
11
24.925514036844362
21
-21.333411588379626
31
0
0
LINE
5
143
100
AcDbEntity
8
0
100
AcDbLine
10
30.964205948183757
20
-30.964205948134129
30
0
11
29.1681547239683
21
-32.760257172349256
31
0
0
LINE
5
144
100
AcDbEntity
8
0
100
AcDbLine
10
30.964205948183757
20
-30.964205948134129
30
0
11
32.760257172396436
21
-29.168154723921148
31
0
0
CIRCLE
5
145
100
AcDbEntity
8
0
100
AcDbCircle
10
27.046834380385455
20
-27.046834380385476
30
0
40
3.0000000000000004
210
0
220
0
230
1
0
ENDSEC
0
SECTION
2
OBJECTS
0
DICTIONARY
5
C
100
AcDbDictionary
3
ACAD_GROUP
350
D
3
ACAD_MLINESTYLE
350
17
0
DICTIONARY
5
D
100
AcDbDictionary
0
DICTIONARY
5
1A
330
C
100
AcDbDictionary
0
DICTIONARY
5
17
100
AcDbDictionary
0
ENDSEC
0
EOF
