0
SECTION
2
HEADER
9
$INSUNITS
70
4
9
$ACADVER
1
AC1014
9
$HANDSEED
5
FFFF
0
ENDSEC
0
SECTION
2
TABLES
0
TABLE
2
VPORT
5
8
100
AcDbSymbolTable
0
ENDTAB
0
TABLE
2
LTYPE
5
5
100
AcDbSymbolTable
0
LTYPE
5
14
100
AcDbSymbolTableRecord
100
AcDbLinetypeTableRecord
2
BYBLOCK
70
0
0
LTYPE
5
15
100
AcDbSymbolTableRecord
100
AcDbLinetypeTableRecord
2
BYLAYER
70
0
0
ENDTAB
0
TABLE
2
LAYER
5
2
100
AcDbSymbolTable
70
2
0
LAYER
5
50
100
AcDbSymbolTableRecord
100
AcDbLayerTableRecord
2
0
70
0
6
CONTINUOUS
0
ENDTAB
0
TABLE
2
STYLE
5
3
100
AcDbSymbolTable
70
1
0
STYLE
5
11
100
AcDbSymbolTableRecord
100
AcDbTextStyleTableRecord
2
STANDARD
70
0
0
ENDTAB
0
TABLE
2
VIEW
5
6
100
AcDbSymbolTable
70
0
0
ENDTAB
0
TABLE
2
UCS
5
7
100
AcDbSymbolTable
70
0
0
ENDTAB
0
TABLE
2
APPID
5
9
100
AcDbSymbolTable
70
2
0
APPID
5
12
100
AcDbSymbolTableRecord
100
AcDbRegAppTableRecord
2
ACAD
70
0
0
ENDTAB
0
TABLE
2
DIMSTYLE
5
A
100
AcDbSymbolTable
70
1
0
ENDTAB
0
TABLE
2
BLOCK_RECORD
5
1
100
AcDbSymbolTable
70
1
0
BLOCK_RECORD
5
1F
100
AcDbSymbolTableRecord
100
AcDbBlockTableRecord
2
*MODEL_SPACE
0
BLOCK_RECORD
5
1B
100
AcDbSymbolTableRecord
100
AcDbBlockTableRecord
2
*PAPER_SPACE
0
ENDTAB
0
ENDSEC
0
SECTION
2
BLOCKS
0
BLOCK
5
20
100
AcDbEntity
100
AcDbBlockBegin
2
*MODEL_SPACE
0
ENDBLK
5
21
100
AcDbEntity
100
AcDbBlockEnd
0
BLOCK
5
1C
100
AcDbEntity
100
AcDbBlockBegin
2
*PAPER_SPACE
0
ENDBLK
5
1D
100
AcDbEntity
100
AcDbBlockEnd
0
ENDSEC
0
SECTION
2
ENTITIES
0
LINE
5
100
100
AcDbEntity
8
0
100
AcDbLine
10
-25.420488783656388
20
28.673179977114529
30
0
11
-28.67317997711449
21
25.420488783656428
31
0
0
LINE
5
101
100
AcDbEntity
8
0
100
AcDbLine
10
-25.915463530486988
20
29.168154723945129
30
0
11
-24.925514036825788
21
28.178205230283929
31
0
0
LINE
5
102
100
AcDbEntity
8
0
100
AcDbLine
10
-28.178205230283886
20
24.925514036825824
30
0
11
-29.16815472394509
21
25.915463530487024
31
0
0
LINE
5
103
100
AcDbEntity
8
0
100
AcDbLine
10
25.420488783656413
20
28.673179977114529
30
0
11
28.673179977114522
21
25.420488783656428
31
0
0
LINE
5
104
100
AcDbEntity
8
0
100
AcDbLine
10
28.673179977114515
20
-25.420488783656424
30
0
11
25.42048878365641
21
-28.673179977114533
31
0
0
LINE
5
105
100
AcDbEntity
8
0
100
AcDbLine
10
-25.420488783656339
20
-28.673179977114533
30
0
11
-28.67317997711449
21
-25.420488783656424
31
0
0
LINE
5
106
100
AcDbEntity
8
0
100
AcDbLine
10
-29.16815472394509
20
-25.915463530487024
30
0
11
-28.178205230283886
21
-24.925514036825824
31
0
0
LINE
5
107
100
AcDbEntity
8
0
100
AcDbLine
10
-24.925514036825788
20
-28.178205230283929
30
0
11
-25.915463530486885
21
-29.168154723945129
31
0
0
LINE
5
108
100
AcDbEntity
8
0
100
AcDbLine
10
28.178205230283915
20
-24.925514036825824
30
0
11
29.168154723945115
21
-25.915463530487024
31
0
0
LINE
5
109
100
AcDbEntity
8
0
100
AcDbLine
10
25.915463530487017
20
-29.168154723945129
30
0
11
24.925514036825813
21
-28.178205230283929
31
0
0
LINE
5
110
100
AcDbEntity
8
0
100
AcDbLine
10
24.925514036825813
20
28.178205230283929
30
0
11
25.915463530487017
21
29.168154723945129
31
0
0
LINE
5
111
100
AcDbEntity
8
0
100
AcDbLine
10
29.168154723945115
20
25.915463530487024
30
0
11
28.178205230283915
21
24.925514036825824
31
0
0
CIRCLE
5
112
100
AcDbEntity
8
0
100
AcDbCircle
10
-27.046834380385437
20
27.046834380385476
30
0
40
1.7000000000000002
210
0
220
0
230
1
0
CIRCLE
5
113
100
AcDbEntity
8
0
100
AcDbCircle
10
27.046834380385469
20
27.046834380385476
30
0
40
1.7000000000000002
210
0
220
0
230
1
0
CIRCLE
5
114
100
AcDbEntity
8
0
100
AcDbCircle
10
27.046834380385462
20
-27.046834380385476
30
0
40
1.7000000000000002
210
0
220
0
230
1
0
CIRCLE
5
115
100
AcDbEntity
8
0
100
AcDbCircle
10
-27.046834380385416
20
-27.046834380385476
30
0
40
1.7000000000000002
210
0
220
0
230
1
0
LWPOLYLINE
5
116
100
AcDbEntity
8
0
100
AcDbPolyline
90
32
70
1
43
0.0
10
33.149999999999935
20
-22.92710319181154
10
33.149999999999942
20
22.927103191811575
42
-0.19891236737966006
10
34.02867965644031
20
25.048423535371228
10
35.271320343559587
20
26.291064222490498
42
0.41421356237309509
10
35.271320343559594
20
30.533704909609792
10
30.533704909609732
20
35.271320343559665
42
0.41421356237309509
10
26.291064222490451
20
35.271320343559672
10
25.04842353537115
20
34.028679656440374
42
-0.1989123673796587
10
22.927103191811504
20
33.150000000000034
10
-22.92710319181154
20
33.150000000000034
42
-0.19891236737965731
10
-25.048423535371185
20
34.028679656440396
10
-26.291064222490466
20
35.271320343559672
42
0.41421356237309509
10
-30.53370490960976
20
35.271320343559672
10
-35.271320343559616
20
30.533704909609828
42
0.41421356237309509
10
-35.271320343559623
20
26.291064222490519
10
-34.028679656440339
20
25.048423535371231
42
-0.19891236737966078
10
-33.149999999999984
20
22.927103191811593
10
-33.149999999999984
20
-22.927103191811501
42
-0.19891236737965662
10
-34.028679656440339
20
-25.04842353537115
10
-35.271320343559644
20
-26.291064222490444
42
0.41421356237309537
10
-35.271320343559644
20
-30.533704909609721
10
-30.53370490960976
20
-35.271320343559616
42
0.41421356237309442
10
-26.29106422249048
20
-35.271320343559623
10
-25.048423535371178
20
-34.028679656440332
42
-0.19891236737965995
10
-22.927103191811536
20
-33.149999999999977
10
22.92710319181149
20
-33.14999999999997
42
-0.19891236737965848
10
25.048423535371136
20
-34.028679656440318
10
26.291064222490405
20
-35.27132034355963
42
0.41421356237309714
10
30.53370490960971
20
-35.27132034355963
10
35.271320343559594
20
-30.533704909609803
42
0.41421356237309437
10
35.271320343559566
20
-26.291064222490569
10
34.028679656440289
20
-25.048423535371178
42
-0.1989123673796564
0
LINE
5
117
100
AcDbEntity
8
0
100
AcDbLine
10
-33.149999999999984
20
33.150000000000034
30
0
11
33.149999999999935
21
-33.14999999999997
31
0
0
LINE
5
118
100
AcDbEntity
8
0
100
AcDbLine
10
33.149999999999935
20
33.150000000000034
30
0
11
-33.149999999999984
21
-33.14999999999997
31
0
0
CIRCLE
5
119
100
AcDbEntity
8
0
100
AcDbCircle
10
0
20
0
30
0
40
27.5
210
0
220
0
230
1
0
CIRCLE
5
120
100
AcDbEntity
8
0
100
AcDbCircle
10
-27.046834380385437
20
27.046834380385484
30
0
40
1.4999999999999991
210
0
220
0
230
1
0
CIRCLE
5
121
100
AcDbEntity
8
0
100
AcDbCircle
10
-27.046834380385437
20
27.046834380385484
30
0
40
2.9999999999999982
210
0
220
-0
230
1
0
LINE
5
122
100
AcDbEntity
8
0
100
AcDbLine
10
24.169743878930795
20
33.150000000000034
30
0
11
33.149999999999942
21
24.169743878930866
31
0
0
LINE
5
123
100
AcDbEntity
8
0
100
AcDbLine
10
23.129462812611983
20
23.129462812612015
30
0
11
21.333411588398207
21
24.925514036825817
31
0
0
LINE
5
124
100
AcDbEntity
8
0
100
AcDbLine
10
23.129462812611983
20
23.129462812612015
30
0
11
24.925514036825767
21
21.33341158839821
31
0
0
LINE
5
125
100
AcDbEntity
8
0
100
AcDbLine
10
30.964205948158924
20
30.96420594815897
30
0
11
32.760257172372711
21
29.168154723945165
31
0
0
LINE
5
126
100
AcDbEntity
8
0
100
AcDbLine
10
30.964205948158924
20
30.96420594815897
30
0
11
29.16815472394514
21
32.760257172372782
31
0
0
LINE
5
127
100
AcDbEntity
8
0
100
AcDbLine
10
24.169743878930774
20
-33.14999999999997
30
0
11
33.149999999999935
21
-24.169743878930824
31
0
0
LINE
5
128
100
AcDbEntity
8
0
100
AcDbLine
10
-24.169743878930824
20
-33.149999999999977
30
0
11
-33.149999999999984
21
-24.169743878930795
31
0
0
LINE
5
129
100
AcDbEntity
8
0
100
AcDbLine
10
-33.149999999999984
20
24.16974387893088
30
0
11
-24.169743878930827
21
33.150000000000034
31
0
0
LINE
5
130
100
AcDbEntity
8
0
100
AcDbLine
10
-23.129462812612015
20
23.129462812611983
30
0
11
-21.333411588398214
21
24.925514036825763
31
0
0
LINE
5
131
100
AcDbEntity
8
0
100
AcDbLine
10
-23.129462812612015
20
23.129462812611983
30
0
11
-24.925514036825824
21
21.333411588398199
31
0
0
LINE
5
132
100
AcDbEntity
8
0
100
AcDbLine
10
-30.96420594815897
20
30.964205948158924
30
0
11
-32.760257172372782
21
29.16815472394514
31
0
0
LINE
5
133
100
AcDbEntity
8
0
100
AcDbLine
10
-30.96420594815897
20
30.964205948158924
30
0
11
-29.168154723945165
21
32.760257172372711
31
0
0
LINE
5
134
100
AcDbEntity
8
0
100
AcDbLine
10
-23.129462812611983
20
-23.129462812612012
30
0
11
-24.925514036825774
21
-21.333411588398207
31
0
0
LINE
5
135
100
AcDbEntity
8
0
100
AcDbLine
10
-23.129462812611983
20
-23.129462812612012
30
0
11
-21.33341158839821
21
-24.925514036825817
31
0
0
LINE
5
136
100
AcDbEntity
8
0
100
AcDbLine
10
-30.964205948158927
20
-30.964205948158966
30
0
11
-29.168154723945143
21
-32.760257172372775
31
0
0
LINE
5
137
100
AcDbEntity
8
0
100
AcDbLine
10
-30.964205948158927
20
-30.964205948158966
30
0
11
-32.760257172372718
21
-29.168154723945161
31
0
0
LINE
5
138
100
AcDbEntity
8
0
100
AcDbLine
10
23.129462812612012
20
-23.129462812611983
30
0
11
21.333411588398207
21
-24.925514036825774
31
0
0
LINE
5
139
100
AcDbEntity
8
0
100
AcDbLine
10
23.129462812612012
20
-23.129462812611983
30
0
11
24.925514036825813
21
-21.33341158839821
31
0
0
LINE
5
140
100
AcDbEntity
8
0
100
AcDbLine
10
30.964205948158966
20
-30.964205948158927
30
0
11
32.760257172372775
21
-29.168154723945143
31
0
0
LINE
5
141
100
AcDbEntity
8
0
100
AcDbLine
10
30.964205948158966
20
-30.964205948158927
30
0
11
29.168154723945161
21
-32.760257172372718
31
0
0
ENDSEC
0
SECTION
2
OBJECTS
0
DICTIONARY
5
C
100
AcDbDictionary
3
ACAD_GROUP
350
D
3
ACAD_MLINESTYLE
350
17
0
DICTIONARY
5
D
100
AcDbDictionary
0
DICTIONARY
5
1A
330
C
100
AcDbDictionary
0
DICTIONARY
5
17
100
AcDbDictionary
0
ENDSEC
0
EOF
